# xmcd
#
# Track frame offsets: 
#        150
#        13074
#        27127
#        42369
#        56162
#        74343
#        91630
#        107285
#        123881
#        134903
#        150591
#        170443
#
# Disc length: 2465 seconds
#
# Revision: 1
# Processed by: cddbd v1.5.1PL0 Copyright (c) Steve Scherf et al.
# Submitted via: ExactAudioCopy v0.90b4
#
DISCID=97099f0c
DTITLE=Randy Travis - 36 All-Time Greatest Hits - Disc 2
DYEAR=1900
DGENRE=Country
TTITLE0=Honky Tonk Moon
TTITLE1=Forever Together
TTITLE2=Before You Kill Us All
TTITLE3=No Stoppin' Us Now
TTITLE4=Promises
TTITLE5=Price To Pay
TTITLE6=High Lonesome
TTITLE7=A Few Ole Country Boys
TTITLE8=Would I
TTITLE9=The Truth Is Lyin' Next To You
TTITLE10=Reasons I Cheat
TTITLE11=I Won't Need You Anymore
EXTD=
EXTT0=
EXTT1=
EXTT2=
EXTT3=
EXTT4=
EXTT5=
EXTT6=
EXTT7=
EXTT8=
EXTT9=
EXTT10=
EXTT11=
PLAYORDER=
